<?xml version="1.0" encoding="utf-8"?>
<!-- Svg Vector Icons : http://www.onlinewebfonts.com/icon -->
<!DOCTYPE svg PUBLIC "-//W3C//DTD SVG 1.1//EN" "http://www.w3.org/Graphics/SVG/1.1/DTD/svg11.dtd">
<svg version="1.1" xmlns="http://www.w3.org/2000/svg" xmlns:xlink="http://www.w3.org/1999/xlink" x="0px" y="0px" viewBox="0 0 1000 1000" enable-background="new 0 0 1000 1000" xml:space="preserve">
<metadata> Svg Vector Icons : http://www.onlinewebfonts.com/icon </metadata>
<g><path d="M499.6,10c-199.8,0-366.1,183-314,389.6c59,233.7,315.9,494.6,315.9,494.6S754,634.4,814.1,400.8C867.2,194.4,699.4,10,499.6,10z M772.1,388.9c-51.6,205.4-270.8,441.2-270.8,441.2s-223-238.4-273.6-443.8C182.9,204.8,328.1,53,499.7,53C671.2,53,817.7,207.6,772.1,388.9z"/><path d="M499.8,174.2c-99.1,0-179.4,80.3-179.4,179.4c0,99.1,80.3,179.4,179.4,179.4s179.4-80.3,179.4-179.4C679.2,254.5,598.9,174.2,499.8,174.2z M499.8,490.5c-75.6,0-136.8-61.3-136.8-136.8c0-75.6,61.3-136.8,136.8-136.8c75.6,0,136.8,61.3,136.8,136.8C636.6,429.2,575.3,490.5,499.8,490.5z"/><path d="M649.9,792.5c75.2,15.1,124.9,41,124.9,70.6c0,46.5-123.1,84.2-275.1,84.2c-151.9,0-275-37.7-275-84.2c0-29.3,48.8-55.1,123-70.2l-9.3-39.3c-93.9,22.1-157,62.8-157,109.5c0,70.2,142.6,127,318.5,127c175.9,0,318.5-56.8,318.5-127c0-46.7-63.2-87.5-157.3-109.5L649.9,792.5z"/></g>
</svg>