<?xml version="1.0" encoding="utf-8"?>
<!-- Generator: Adobe Illustrator 24.0.1, SVG Export Plug-In . SVG Version: 6.00 Build 0)  -->
<svg version="1.1" id="Слой_1" xmlns="http://www.w3.org/2000/svg" xmlns:xlink="http://www.w3.org/1999/xlink" x="0px" y="0px"
	 viewBox="0 0 533.3 530.1" style="enable-background:new 0 0 533.3 530.1;" xml:space="preserve">
<style type="text/css">
	.st0{fill:#100F0D;}
</style>
<path d="M533.3,266.7C533.3,119.4,413.9,0,266.7,0C119.4,0,0,119.4,0,266.7c0,133.1,97.5,243.4,225,263.4V343.8h-67.7v-77.1H225
	v-58.8c0-66.8,39.8-103.8,100.7-103.8c29.2,0,59.7,5.2,59.7,5.2V175h-33.6c-33.1,0-43.5,20.6-43.5,41.6v50h74l-11.8,77.1h-62.1
	v186.3C435.8,510.1,533.3,399.8,533.3,266.7"/>
<path class="st0" d="M333.3,133.3"/>
</svg>
