<?xml version="1.0" encoding="utf-8"?>
<!-- Generator: Adobe Illustrator 24.0.1, SVG Export Plug-In . SVG Version: 6.00 Build 0)  -->
<svg version="1.1" id="Слой_1" xmlns="http://www.w3.org/2000/svg" xmlns:xlink="http://www.w3.org/1999/xlink" x="0px" y="0px"
	 viewBox="0 0 27 26.9" style="enable-background:new 0 0 27 26.9;" xml:space="preserve">
<g id="Icons">
	<g id="Icons_22_">
		<g>
			<path d="M24.4,0H2.5C1.1,0,0,1.1,0,2.5v21.9c0,1.4,1.1,2.5,2.5,2.5h21.9c1.4,0,2.5-1.1,2.5-2.5V2.5C27,1.1,25.8,0,24.4,0z
				 M8.9,20.8c-1,0-1.9,0-2.9,0c-0.2,0-0.2,0-0.2-0.2V10.4c0-0.2,0.1-0.2,0.2-0.2c1,0,1.9,0,2.9,0c0.2,0,0.2,0.1,0.2,0.2v5.1
				c0,1.7,0,3.4,0,5.1C9.1,20.8,9.1,20.8,8.9,20.8z M7.5,8.8C6.4,8.8,5.5,8,5.5,6.9c0-1,0.8-1.9,1.9-1.9c1.1,0,1.9,0.8,1.9,1.9
				C9.4,8,8.6,8.8,7.5,8.8z M21.1,20.8h-2.8c-0.2,0-0.2,0-0.2-0.2v-5.1c0-0.5,0-1-0.2-1.4c-0.2-0.7-0.7-1.1-1.5-1.1
				c-0.5,0-1,0.1-1.4,0.5c-0.3,0.3-0.4,0.7-0.5,1.2c0,0.4-0.1,0.8-0.1,1.2c0,1.6,0,3.2,0,4.8c0,0.2,0,0.2-0.2,0.2c-1,0-1.9,0-2.9,0
				c-0.2,0-0.2,0-0.2-0.2c0-3.4,0-6.8,0-10.2c0-0.2,0.1-0.2,0.2-0.2c0.9,0,1.8,0,2.8,0c0.2,0,0.2,0.1,0.2,0.2c0,0.4,0,0.8,0,1.1
				c0.5-0.8,1.2-1.3,2.1-1.5c1-0.2,2-0.2,3,0.2c0.9,0.4,1.4,1.2,1.7,2.1c0.2,0.6,0.3,1.2,0.3,1.9c0,2.1,0,4.1,0,6.2
				C21.4,20.8,21.4,20.8,21.1,20.8z"/>
		</g>
	</g>
</g>
</svg>
