<?xml version="1.0" encoding="utf-8"?>
<!-- Generator: Adobe Illustrator 24.0.1, SVG Export Plug-In . SVG Version: 6.00 Build 0)  -->
<svg version="1.1" id="Слой_1" xmlns="http://www.w3.org/2000/svg" xmlns:xlink="http://www.w3.org/1999/xlink" x="0px" y="0px"
	 viewBox="0 0 532 313" style="enable-background:new 0 0 532 313;" xml:space="preserve">
<style type="text/css">
	.st0{fill:#AF6E7F;}
	.st1{fill:#FFFFFF;}
	.st2{fill:#DFC6CC;}
	.st3{fill:none;stroke:#CAAFB7;stroke-width:0.8439;stroke-miterlimit:10;}
	.st4{fill:#131B1E;}
	.st5{fill:#273237;}
	.st6{fill:#AB5F55;}
	.st7{fill:#171E21;}
	.st8{fill:none;stroke:#312725;stroke-width:0.5778;stroke-linecap:round;stroke-linejoin:round;stroke-miterlimit:10;}
	.st9{fill:none;stroke:#312725;stroke-width:0.5189;stroke-linecap:round;stroke-linejoin:round;stroke-miterlimit:10;}
	.st10{fill:#4B84FA;}
	.st11{fill:none;stroke:#4F3B30;stroke-width:0.8439;stroke-miterlimit:10;}
	.st12{fill:none;stroke:#4F3B32;stroke-width:1.1466;stroke-miterlimit:10;}
	.st13{fill:none;stroke:#E8D3CC;stroke-width:0.9798;stroke-linecap:round;stroke-linejoin:round;stroke-miterlimit:10;}
	.st14{fill:#E6ADA1;}
	.st15{fill:#E58F82;}
	.st16{fill:none;stroke:#E06C63;stroke-width:1.0197;stroke-miterlimit:10;}
	.st17{fill:#EEBFB0;}
	.st18{fill:none;stroke:#E0E0E0;stroke-width:0.7601;stroke-miterlimit:10;}
	.st19{fill:#DB9788;}
	.st20{fill:none;stroke:#171E21;stroke-width:0.5271;stroke-linecap:round;stroke-linejoin:round;stroke-miterlimit:10;}
	.st21{fill:none;stroke:#FFFFFF;stroke-width:0.4899;stroke-miterlimit:10;}
	.st22{fill:none;stroke:#312725;stroke-width:0.5581;stroke-linecap:round;stroke-linejoin:round;stroke-miterlimit:10;}
</style>
<g>
	<g>
		<g>
			<g>
				<path class="st0" d="M381.04,232.51h-55.67c-3.24,0-5.87-2.63-5.87-5.87l0,0c0-3.24,2.63-5.87,5.87-5.87h55.67
					c3.24,0,5.87,2.63,5.87,5.87l0,0C386.91,229.88,384.28,232.51,381.04,232.51z"/>
				<path class="st0" d="M419.34,232.51h-65.69c-4.48,0-7.7-4.39-6.43-8.76l31.37-108.14c0.84-2.9,3.46-4.89,6.43-4.89h65.69
					c4.48,0,7.7,4.39,6.43,8.76l-31.37,108.14C424.93,230.52,422.32,232.51,419.34,232.51z"/>
				<path class="st1" d="M410.3,232.51h-57.22c-4.48,0-7.7-4.39-6.43-8.76l31.37-108.14c0.84-2.9,3.46-4.89,6.43-4.89h57.22
					c4.48,0,7.7,4.39,6.43,8.76l-31.37,108.14C415.89,230.52,413.28,232.51,410.3,232.51z"/>
				<path class="st0" d="M419.33,232.51h-69.53c-3.24,0-5.87-2.63-5.87-5.87l0,0c0-3.24,2.63-5.87,5.87-5.87h69.53
					c3.24,0,5.87,2.63,5.87,5.87l0,0C425.2,229.88,422.57,232.51,419.33,232.51z"/>
			</g>
			<g>
				<g>
					<g>
						<path class="st2" d="M336.18,105.59c0,0-15.52,21.33-26.51,46.58c-1.23,2.83-0.97,6.12,0.73,8.7l0,0
							c3.82,5.81,13.81,4.47,17.65-0.93c0,0,29.38-40.67,28.13-42.32C355.88,117.22,336.18,105.59,336.18,105.59z"/>
						<path class="st2" d="M317.99,144.77l-38.49-15.48l-3.33,20.15l38.75,14.74c1.4,0.53,2.93,0.69,4.39,0.36
							c5.01-1.12,8.56-6.05,7.64-11.47l0,0C326.18,148.57,322.5,145.16,317.99,144.77z"/>
					</g>
					<g>
						<path class="st2" d="M366.19,100.65l-26.64,3.42c-2.71,0.35-4.66,2.79-4.39,5.52l17.21,74.68l57.18-0.14l-8.1-74.29
							c0.34-2.79-1.67-5.32-4.46-5.63L366.19,100.65z"/>
						<path class="st3" d="M342.7,140.64c0-0.89-4.78-19.05-4.78-19.05"/>
					</g>
					<g>
						<g>
							<path class="st4" d="M356.09,175.27H310v-5.2h46.09c1.44,0,2.6,1.16,2.6,2.6l0,0C358.69,174.11,357.53,175.27,356.09,175.27z
								"/>
							<g>
								<path class="st5" d="M316.07,175.27H249.9c-3.52,0-6.6-2.34-7.55-5.73l-11.91-42.78c-1.05-3.78,1.79-7.53,5.72-7.53h61.19
									c2.35,0,4.4,1.58,5,3.85L316.07,175.27z"/>
								<path class="st1" d="M276.34,149.65c0,3.19-2.59,5.78-5.78,5.78c-3.19,0-5.78-2.59-5.78-5.78s2.59-5.78,5.78-5.78
									C273.75,143.87,276.34,146.45,276.34,149.65z"/>
							</g>
						</g>
						<g>
							<path class="st2" d="M378.71,118.6c0,0,14.52,28.76,30.92,51.93c1.84,2.6,6.18,3.89,9.35,3.75l0,0
								c7.18-0.31,10.22-8.04,7.5-14.33c0,0-22.97-53.07-26.15-53.94C399.85,105.88,378.71,118.6,378.71,118.6z"/>
							<g>
								<g>
									<g>
										<polygon class="st6" points="362.11,163.99 374.6,163.03 374.21,175.52 363.4,175.52 										"/>
									</g>
									<path class="st6" d="M363.04,163.99c0,0-28.63-11.04-25.45,11.51h27.48L363.04,163.99z"/>
								</g>
								<g>
									<path class="st2" d="M415.89,154.93L371,156.29l0.87,20.09l46.64-0.98c6.64-0.89,10.68-7.78,8.22-14.01l0,0
										C425.01,157.02,420.55,154.36,415.89,154.93z"/>
									<g>
										<polyline class="st3" points="387.36,129.7 399.23,155.44 371,156.29 370.98,163.03 										"/>
										<line class="st3" x1="399.23" y1="155.44" x2="405.51" y2="158.51"/>
									</g>
								</g>
							</g>
						</g>
					</g>
				</g>
				<g>
					<path class="st7" d="M347.79,70.67c0.48,3.19-1.62,6.16-4.71,6.65c-3.09,0.48-5.98-1.71-6.47-4.9
						c-0.49-3.19,1.62-6.16,4.71-6.65C344.41,65.29,347.31,67.48,347.79,70.67z"/>
					<path class="st6" d="M355.74,86.22l1.32,15.63c0.45,5.49,3.97,8.14,9.2,7.64l0,0c4.46-0.42,9.18-3.01,8.58-7.83l-3.23-24.49
						L355.74,86.22z"/>
					<path class="st6" d="M359.48,91.15L359.48,91.15c-8.92,0.78-16.9-5.86-17.8-13.37l-1.79-15.71c-1.13-9.4,5.17-18,14.24-19.42
						l0,0c9.28-1.45,19.61,4.88,21.07,14.47l1.25,12.26C377.58,80.42,370.09,89.48,359.48,91.15z"/>
					<g>
						<polyline class="st8" points="350.49,71.94 350.44,75.44 352.65,75.34 						"/>
						<path class="st7" d="M359.47,62.46c0,0-3.68,0-3.59,1.54c0,0,0.09,1.04,3.3,0.98c3.21-0.06,4.02-0.37,4.23-1.37
							C363.61,62.6,361.18,62.33,359.47,62.46z"/>
						<path class="st7" d="M344.46,63.3c0,0,2.99-0.57,3.36,0.85c0,0,0.23,0.97-2.4,1.41c-2.62,0.44-3.51,0.17-3.83-0.6
							C341.24,64.08,343.03,63.44,344.46,63.3z"/>
						<path class="st8" d="M356.33,69.39c0,0,2.37-1.84,4.74,0.01"/>
						<path class="st8" d="M347.43,70.17c0,0-1.67-1.74-4.01,0.36"/>
					</g>
					<path class="st7" d="M366.17,49.34c0,0-4.2,5.39,4.15,11.92c0,0-1.42,13.5-3.24,16.94c0,0-16.91-3.46-24.84,2.07
						c0,0,0.27,11.79,14.18,12.35c18.49,0.75,20.44-18.05,20.44-18.05l-3.86-9.08l6.31,0.86c0,0,12.82-19.37-7.17-19.37
						L366.17,49.34z"/>
					<g>
						<path class="st6" d="M383.24,67.92c0.48,3.19-1.62,6.16-4.71,6.65c-3.09,0.48-5.98-1.71-6.47-4.9
							c-0.48-3.19,1.62-6.16,4.71-6.65C379.86,62.54,382.76,64.73,383.24,67.92z"/>
						<path class="st9" d="M375.96,70.48c0,0-0.64-4.18,3.34-4.13"/>
					</g>
					<path class="st7" d="M366.99,50.17c0,0-15.45,0.94-24.79,0.2c0,0-9.21-3.45-5.39-9.04c3.02-4.42,10.33-0.81,10.33-0.81
						s-0.12-4.56,3.09-5.8c3.85-1.49,15.09-2.69,24.66,12.56L366.99,50.17z"/>
					<path class="st6" d="M356.91,101.84l-4.93,0.63c0,0-2.2,8.25,9.25,9.07c11.93,0.86,16.64-3.55,18.94-9.44l-13.14-2.58
						L356.91,101.84z"/>
				</g>
				<g>
					<g>
						<g>
							
								<rect x="310.35" y="274.92" transform="matrix(-1 4.224797e-03 -4.224797e-03 -1 638.7567 571.2602)" class="st6" width="16.84" height="22.77"/>
						</g>
						<g>
							<g>
								<path class="st10" d="M365.47,184.13l1.18,7.26c2.53,15.5-9.44,29.57-25.14,29.57h-7.53v64.03l-31.25,0.42L301,206.97
									c-0.23-12.47,9.8-22.72,22.27-22.75L365.47,184.13z"/>
							</g>
						</g>
						<g>
							<path class="st7" d="M327.37,294.41c-3.96,1.06-13.04,3.86-17.25-2.24l-28.44,15.41l50.21-0.33l-2.23-11.33
								C329.5,294.83,328.43,294.13,327.37,294.41z"/>
							
								<rect x="281.7" y="307.42" transform="matrix(-1 6.574539e-03 -6.574539e-03 -1 615.6374 617.1602)" class="st1" width="50.21" height="4.35"/>
							<path class="st1" d="M310.42,298.9c-0.13-0.05-0.24-0.14-0.33-0.26c-1.84-2.53-3.69-3.78-3.71-3.8
								c-0.36-0.24-0.46-0.74-0.22-1.1c0.24-0.37,0.74-0.45,1.1-0.22c0.09,0.06,2.09,1.4,4.11,4.18c0.26,0.36,0.18,0.85-0.18,1.11
								C310.97,298.99,310.67,299.01,310.42,298.9z"/>
							<path class="st1" d="M306.56,300.94c-0.13-0.05-0.24-0.14-0.33-0.26c-1.84-2.53-3.69-3.78-3.71-3.8
								c-0.36-0.24-0.46-0.74-0.22-1.1c0.24-0.36,0.74-0.46,1.1-0.22c0.09,0.06,2.09,1.4,4.11,4.18c0.26,0.36,0.18,0.85-0.18,1.11
								C307.1,301.03,306.8,301.05,306.56,300.94z"/>
							<path class="st1" d="M302.69,302.98c-0.13-0.05-0.24-0.14-0.33-0.26c-1.84-2.53-3.69-3.78-3.71-3.79
								c-0.36-0.24-0.46-0.74-0.22-1.1c0.24-0.36,0.74-0.46,1.1-0.22c0.09,0.06,2.09,1.4,4.11,4.18c0.26,0.35,0.18,0.85-0.18,1.11
								C303.24,303.06,302.94,303.08,302.69,302.98z"/>
						</g>
					</g>
					<g>
						<g>
							<g>
								<g>
									
										<rect x="354.44" y="274.92" transform="matrix(-1 4.224797e-03 -4.224797e-03 -1 726.9349 571.074)" class="st6" width="16.84" height="22.77"/>
								</g>
								<g>
									<path class="st7" d="M371.2,293.46c-3.96,1.06-12.93,4.52-17.14-1.58l-28.44,15.41l50.21-0.33l-2.34-11.99
										C373.32,293.88,372.26,293.17,371.2,293.46z"/>
									
										<rect x="325.63" y="307.12" transform="matrix(-1 6.574513e-03 -6.574513e-03 -1 703.4949 616.2825)" class="st1" width="50.21" height="4.35"/>
									<path class="st1" d="M354.35,298.61c-0.13-0.05-0.24-0.14-0.33-0.26c-1.84-2.53-3.69-3.78-3.71-3.8
										c-0.36-0.24-0.46-0.74-0.22-1.1c0.24-0.37,0.74-0.45,1.1-0.22c0.09,0.06,2.09,1.4,4.11,4.18c0.26,0.36,0.18,0.85-0.18,1.11
										C354.9,298.69,354.6,298.72,354.35,298.61z"/>
									<path class="st1" d="M350.49,300.65c-0.13-0.05-0.24-0.14-0.33-0.26c-1.84-2.53-3.69-3.78-3.71-3.8
										c-0.36-0.24-0.46-0.74-0.22-1.1c0.24-0.36,0.74-0.46,1.1-0.22c0.09,0.06,2.09,1.4,4.11,4.18c0.26,0.36,0.18,0.85-0.18,1.11
										C351.03,300.73,350.73,300.75,350.49,300.65z"/>
									<path class="st1" d="M346.62,302.68c-0.13-0.05-0.24-0.14-0.33-0.26c-1.84-2.53-3.69-3.78-3.71-3.79
										c-0.36-0.24-0.46-0.74-0.22-1.1c0.24-0.36,0.74-0.46,1.1-0.22c0.09,0.06,2.09,1.4,4.11,4.18c0.26,0.35,0.18,0.85-0.18,1.11
										C347.17,302.77,346.87,302.79,346.62,302.68z"/>
								</g>
							</g>
							<g>
								<g>
									<path class="st10" d="M409.56,184.13l1.18,7.26c2.53,15.5-9.44,29.57-25.14,29.57h-7.53v64.03l-31.25,0.42l-1.74-78.44
										c-0.23-12.47,9.8-22.72,22.27-22.75L409.56,184.13z"/>
									<path class="st11" d="M344.79,220.77v-14.96c0-12.23,9.84-22.16,21.99-22.18l5.57-0.01"/>
								</g>
							</g>
						</g>
					</g>
				</g>
			</g>
		</g>
		<g>
			<polyline class="st12" points="272.88,313.33 228.05,180.13 191.98,311.71 			"/>
			<polyline class="st12" points="461.32,313.33 416.5,180.13 380.42,311.71 			"/>
			<g>
				<rect x="162.46" y="175.29" class="st1" width="318.49" height="9.02"/>
			</g>
		</g>
		<g>
			<g>
				<path class="st1" d="M210.28,57.64h78.77c1.15,0,2.09-0.94,2.09-2.09V27.02c0-1.15-0.94-2.09-2.09-2.09h-78.77
					c-1.15,0-2.09,0.94-2.09,2.09v28.53C208.19,56.7,209.13,57.64,210.28,57.64z"/>
				<g>
					<line class="st13" x1="276.54" y1="37.46" x2="221.42" y2="37.46"/>
					<line class="st13" x1="240.48" y1="46.16" x2="221.6" y2="46.16"/>
				</g>
			</g>
			<polygon class="st1" points="279.49,53.29 279.49,68.08 260.63,53.29 			"/>
		</g>
	</g>
	<g>
		<g>
			<g>
				<g>
					<polygon class="st14" points="149.41,78.39 160.98,124.13 183.61,163.28 175.8,169.86 143.72,129.7 130.91,92.67 					"/>
					<path class="st14" d="M183.61,163.28l20.11,5.93c1.91,0.56,3.71,1.32,4.29,3.21c0.29,0.93,0.12,1.94-0.3,2.82l-0.02,0.05
						c-0.8,1.71-2.66,2.65-4.52,2.29l-16.78-2.2l2.52,4.34c0.52,0.77,0.5,1.79-0.05,2.54l0,0c-0.7,0.95-2.01,1.18-2.99,0.53
						l-5.9-3.91c-1.6-1.06-2.73-2.7-3.16-4.57l-1.01-4.44l2.38-6.59H183.61z"/>
				</g>
				<g>
					<polygon class="st15" points="151.43,70.2 159.19,98.32 134.65,109.51 142.36,86.6 					"/>
				</g>
			</g>
			<g>
				<path class="st15" d="M121.61,56.49c0,0-23.57-8.68-37.25,16.19c-13.68,24.88-24.63,78.89-24.63,78.89l60.96,5.1L144.58,87
					c3.01-6.43,10.5-14.76,5.18-19.46c-2.4-2.13-5.72-4.09-10.31-5.51C121.61,56.49,121.61,56.49,121.61,56.49z"/>
				<line class="st16" x1="137.27" y1="108.32" x2="144.19" y2="88.13"/>
			</g>
			<g>
				<g>
					<path class="st17" d="M131.99,119.11l-24.76-52.44L87.95,95l27.08,37.11c2.44,3.35,6.4,5.25,10.54,5.06l51.63-2.32l6.7-8.99
						L131.99,119.11z"/>
					<path class="st17" d="M183.9,125.86l22.38,1.31l9.14,3.07c1.01,0.34,1.58,1.42,1.29,2.44l0,0c-0.3,1.05-1.38,1.66-2.44,1.38
						l-9-2.41l-6.35-0.5l2.72,2.46c1.3,1.18,2.24,2.71,2.68,4.41l0.38,1.46c0.54,2.05-0.67,4.15-2.71,4.73l-4.41,1.24
						c-1.9,0.53-3.9-0.44-4.65-2.27l-1.38-3.37l-4.28-2.15c0,0-5.97,1.82-11.47-2.79c-4.69-3.94,0.55-5.11,1.03-5.33
						C177.32,129.3,183.9,125.86,183.9,125.86z"/>
				</g>
				<g>
					<polygon class="st15" points="109.7,62.81 130.91,99.13 97.93,122.54 81.08,86.51 					"/>
					<polyline class="st16" points="88.73,104.37 98.73,121.97 104.56,117.76 					"/>
					<line class="st16" x1="124.33" y1="103.8" x2="110.8" y2="78.39"/>
				</g>
			</g>
		</g>
		<g>
			<g>
				<g>
					<polygon class="st17" points="156.19,297.14 154.13,256.75 135.93,259.9 140.99,301.63 156.63,298.65 					"/>
					<g>
						<path d="M138.72,293.63c0,0,13,5.4,19.12-3.33l31.59,16.5l-54.75,0.12L138.72,293.63z"/>
						<polygon class="st1" points="189.39,311.53 134.64,311.65 134.67,306.91 189.42,306.79 						"/>
						<path class="st1" d="M157.51,297.63c0.14-0.06,0.27-0.16,0.37-0.29c2.05-2.77,4.1-4.15,4.12-4.17c0.4-0.27,0.51-0.81,0.24-1.2
							c-0.27-0.4-0.82-0.49-1.22-0.23c-0.09,0.06-2.32,1.55-4.57,4.59c-0.29,0.39-0.2,0.93,0.19,1.21
							C156.9,297.72,157.23,297.75,157.51,297.63z"/>
						<path class="st1" d="M161.8,299.81c0.14-0.06,0.27-0.16,0.37-0.29c2.05-2.77,4.1-4.15,4.12-4.17c0.4-0.27,0.51-0.81,0.24-1.2
							c-0.27-0.39-0.82-0.49-1.22-0.23c-0.09,0.06-2.32,1.55-4.57,4.59c-0.29,0.39-0.2,0.93,0.19,1.21
							C161.19,299.9,161.52,299.93,161.8,299.81z"/>
						<path class="st1" d="M166.1,301.98c0.14-0.06,0.27-0.16,0.37-0.29c2.05-2.77,4.1-4.15,4.12-4.17c0.4-0.27,0.51-0.81,0.24-1.2
							c-0.27-0.39-0.82-0.49-1.22-0.23c-0.09,0.06-2.32,1.55-4.57,4.59c-0.29,0.39-0.2,0.93,0.19,1.21
							C165.49,302.08,165.82,302.1,166.1,301.98z"/>
					</g>
				</g>
				<g>
					<path class="st1" d="M120.69,156.67l33.99,50.61c3.58,6.28,3.34,8.43,3.81,15.64l3.54,61.06L132.07,286l-7.53-60.62
						l-37.08-59.78l-1.86-11.99L120.69,156.67z"/>
				</g>
			</g>
			<g>
				<g>
					<polygon class="st17" points="74.08,299.88 84.78,258.11 66.58,261.27 58.47,299.88 73.35,301.63 					"/>
					<g>
						<path d="M57.77,293.63c0,0,13,5.4,19.12-3.33l31.59,16.5l-54.75,0.12L57.77,293.63z"/>
						<polygon class="st1" points="108.44,311.53 53.69,311.65 53.72,306.91 108.47,306.79 						"/>
						<path class="st1" d="M76.56,297.63c0.14-0.06,0.27-0.16,0.37-0.29c2.05-2.77,4.1-4.15,4.12-4.17c0.4-0.27,0.51-0.81,0.24-1.2
							c-0.27-0.4-0.82-0.49-1.22-0.23c-0.09,0.06-2.32,1.55-4.57,4.59c-0.29,0.39-0.2,0.93,0.19,1.21
							C75.95,297.72,76.28,297.75,76.56,297.63z"/>
						<path class="st1" d="M80.85,299.81c0.14-0.06,0.27-0.16,0.37-0.29c2.05-2.77,4.1-4.15,4.12-4.17c0.4-0.27,0.51-0.81,0.24-1.2
							c-0.27-0.39-0.82-0.49-1.22-0.23c-0.09,0.06-2.32,1.55-4.57,4.59c-0.29,0.39-0.2,0.93,0.19,1.21
							C80.24,299.9,80.57,299.93,80.85,299.81z"/>
						<path class="st1" d="M85.15,301.98c0.14-0.06,0.27-0.16,0.37-0.29c2.05-2.77,4.1-4.15,4.12-4.17c0.4-0.27,0.51-0.81,0.24-1.2
							c-0.27-0.39-0.82-0.49-1.22-0.23c-0.09,0.06-2.32,1.55-4.57,4.59c-0.29,0.39-0.2,0.93,0.19,1.21
							C84.54,302.08,84.87,302.1,85.15,301.98z"/>
					</g>
				</g>
				<g>
					<polyline class="st18" points="104.87,191.74 104.82,184.59 114.64,173.18 					"/>
					<path class="st1" d="M61.44,151.71c0,0-8.02,17.06,2.13,40.34c0.39,0.89,0.78,1.69,1.17,2.45l4.12,35.35L54.7,286.9l31.18,0.37
						l16.82-50.2c0.65-2.52,1.05-5.09,1.21-7.68l-0.43-64.78l7.32-8.8L61.44,151.71z"/>
				</g>
			</g>
		</g>
		<g>
			<path class="st7" d="M163.21,19.98c0,0,6.74,14.06-5.09,13.63L163.21,19.98z"/>
			<path class="st19" d="M150.02,37.06c-1.35,3.23,0.09,6.92,3.21,8.25c3.12,1.32,6.75-0.22,8.1-3.45c1.35-3.23-0.09-6.92-3.21-8.25
				C155,32.28,151.37,33.83,150.02,37.06z"/>
			<path class="st17" d="M142.07,50.14l-4.91,14.33c-1.71,5.04-5.63,6.7-10.41,5l0,0c-4.08-1.44-7.9-4.97-6.2-9.35l8.77-22.19
				L142.07,50.14z"/>
			<path class="st7" d="M138.84,59.68c0,0-12.01-3.01-11.14-17.4c0.28-4.53,14.9,6.4,14.9,6.4L138.84,59.68z"/>
			<path class="st17" d="M136.34,52.84L136.34,52.84c8.18,2.82,17.21-1.53,19.81-8.35l5.36-14.3c3.26-8.55-0.63-18.08-8.79-21.53
				l0,0c-8.35-3.54-19.52-0.02-23.13,8.62l-4.05,11.19C121.89,38.54,126.78,48.79,136.34,52.84z"/>
			<g>
				<polyline class="st20" points="149.21,37.17 148.49,40.24 146.44,39.63 				"/>
				<path class="st7" d="M145,22.44c0,0,3.45,0.86,3,2.28c0,0-0.33,0.95-3.32,0.14c-2.99-0.81-3.68-1.29-3.64-2.28
					C141.09,21.6,143.43,21.91,145,22.44z"/>
				<path class="st7" d="M158.5,27.76c0,0-2.67-1.24-3.35,0.01c0,0-0.44,0.85,1.92,1.88c2.35,1.03,3.25,0.98,3.73,0.34
					C161.34,29.25,159.81,28.23,158.5,27.76z"/>
				<path class="st7" d="M152.96,35.46c-0.3,0.79,0.08,1.67,0.85,1.97c0.77,0.29,1.63-0.12,1.93-0.91c0.3-0.79-0.08-1.67-0.85-1.97
					C154.12,34.26,153.25,34.67,152.96,35.46z"/>
				<path class="st7" d="M140.77,30.83c-0.3,0.79,0.08,1.67,0.85,1.97c0.77,0.29,1.63-0.12,1.93-0.91c0.3-0.79-0.08-1.67-0.85-1.97
					C141.93,29.63,141.07,30.03,140.77,30.83z"/>
				<g>
					<path class="st21" d="M150.86,34.64c-1.4,3.61,0.4,7.66,4,9.06c3.61,1.4,7.66-0.4,9.06-4c1.4-3.61-0.4-7.66-4.01-9.06
						C156.31,29.24,152.26,31.03,150.86,34.64z"/>
					<path class="st21" d="M139.53,24.95c-3.54,1.56-5.14,5.7-3.57,9.24c1.56,3.54,5.7,5.14,9.24,3.57c3.54-1.56,5.14-5.7,3.57-9.24
						C147.21,24.98,143.07,23.38,139.53,24.95z"/>
					<line class="st21" x1="135.83" y1="28.83" x2="129.67" y2="26.44"/>
					<line class="st21" x1="148.37" y1="35.15" x2="150.34" y2="35.91"/>
				</g>
				<path class="st20" d="M140.66,41.18c0,0,1.49,2.99,7.16,2.99"/>
			</g>
			<path class="st7" d="M125.57,7.26c3.39-6.36,9.15-3.72,9.15-3.72l0,0.01c3.83-3.39,11.39-4.9,18.46-2.06
				c9.58,3.84,16.4,12.39,16.09,18.07c-0.31,5.68-7.75,2.77-7.75,2.77s-11.23-3.19-19.79-7.04c-0.89,3.91-3.36,9.76-10.12,7.68
				l-5.54,10.85C126.05,33.81,121.17,15.5,125.57,7.26z"/>
			<g>
				<path class="st17" d="M118.12,25.61c-1.34,3.2,0.08,6.85,3.18,8.17c3.09,1.31,6.69-0.22,8.02-3.42c1.34-3.2-0.08-6.85-3.18-8.17
					C123.05,20.88,119.46,22.41,118.12,25.61z"/>
				<path class="st22" d="M125.05,30.18c0,0,1.76-4.2-2.4-5.18"/>
			</g>
			<path class="st17" d="M116.79,55.29l14.75,3.44l10.16,4.08c0,0-2.88,10-12.03,8.34C112.79,68.1,116.79,55.29,116.79,55.29z"/>
		</g>
	</g>
	<line class="st12" x1="532.09" y1="312.68" x2="-0.18" y2="312.68"/>
</g>
</svg>
